<svg xmlns="http://www.w3.org/2000/svg" xmlns:xlink="http://www.w3.org/1999/xlink" width="800" zoomAndPan="magnify" viewBox="0 0 600 299.999988" height="400" preserveAspectRatio="xMidYMid meet" version="1.0"><defs><g/><clipPath id="0db648286e"><path d="M 0 41.078125 L 215.867188 41.078125 L 215.867188 256.949219 L 0 256.949219 Z M 0 41.078125 " clip-rule="nonzero"/></clipPath><clipPath id="8b9fd46614"><path d="M 107.9375 41.078125 C 48.324219 41.078125 0 89.40625 0 149.015625 C 0 208.628906 48.324219 256.957031 107.9375 256.957031 C 167.550781 256.957031 215.878906 208.628906 215.878906 149.015625 C 215.878906 89.40625 167.550781 41.078125 107.9375 41.078125 Z M 107.9375 41.078125 " clip-rule="nonzero"/></clipPath><clipPath id="ed08c21d5e"><path d="M 8.179688 68.917969 L 172.433594 68.917969 L 172.433594 194.375 L 8.179688 194.375 Z M 8.179688 68.917969 " clip-rule="nonzero"/></clipPath><clipPath id="b8e75a5d32"><path d="M 8.324219 180.328125 L 162.34375 68.878906 L 175.78125 87.453125 L 21.765625 198.898438 Z M 8.324219 180.328125 " clip-rule="nonzero"/></clipPath><clipPath id="a41feb102c"><path d="M 162.285156 68.921875 L 172.367188 82.855469 C 159.535156 92.136719 162.894531 96.777344 150.0625 106.0625 C 137.230469 115.347656 133.871094 110.707031 121.039062 119.992188 C 108.210938 129.273438 111.570312 133.914062 98.738281 143.199219 C 85.910156 152.480469 82.550781 147.84375 69.722656 157.125 C 56.890625 166.410156 60.25 171.050781 47.421875 180.332031 C 34.59375 189.617188 31.234375 184.972656 18.40625 194.257812 L 8.324219 180.328125 C 21.15625 171.042969 24.515625 175.683594 37.34375 166.402344 C 50.167969 157.121094 46.8125 152.480469 59.640625 143.195312 C 72.472656 133.914062 75.832031 138.550781 88.660156 129.269531 C 101.488281 119.984375 98.128906 115.34375 110.960938 106.058594 C 123.789062 96.777344 127.148438 101.417969 139.984375 92.132812 C 152.8125 82.847656 149.453125 78.207031 162.285156 68.921875 Z M 162.285156 68.921875 " clip-rule="nonzero"/></clipPath><clipPath id="056f77fb72"><path d="M 8.324219 180.328125 L 162.34375 68.878906 L 175.78125 87.453125 L 21.765625 198.898438 Z M 8.324219 180.328125 " clip-rule="nonzero"/></clipPath><clipPath id="d3dad2ae68"><path d="M 162.285156 68.921875 L 172.367188 82.855469 C 159.535156 92.136719 162.894531 96.777344 150.0625 106.0625 C 137.230469 115.347656 133.871094 110.707031 121.039062 119.992188 C 108.210938 129.273438 111.570312 133.914062 98.738281 143.199219 C 85.910156 152.480469 82.550781 147.84375 69.722656 157.125 C 56.890625 166.410156 60.25 171.050781 47.421875 180.332031 C 34.59375 189.617188 31.234375 184.972656 18.40625 194.257812 L 8.324219 180.328125 C 21.15625 171.042969 24.515625 175.683594 37.34375 166.402344 C 50.167969 157.121094 46.8125 152.480469 59.640625 143.195312 C 72.472656 133.914062 75.832031 138.550781 88.660156 129.269531 C 101.488281 119.984375 98.128906 115.34375 110.960938 106.058594 C 123.789062 96.777344 127.148438 101.417969 139.984375 92.132812 C 152.8125 82.847656 149.453125 78.207031 162.285156 68.921875 Z M 162.285156 68.921875 " clip-rule="nonzero"/></clipPath><clipPath id="3c0782db3c"><path d="M 30.101562 100.585938 L 200.796875 100.585938 L 200.796875 230.738281 L 30.101562 230.738281 Z M 30.101562 100.585938 " clip-rule="nonzero"/></clipPath><clipPath id="2df9ff7c59"><path d="M 30.121094 216.800781 L 190.738281 100.578125 L 204.179688 119.148438 L 43.558594 235.371094 Z M 30.121094 216.800781 " clip-rule="nonzero"/></clipPath><clipPath id="1f0d298cfc"><path d="M 190.679688 100.621094 L 200.757812 114.554688 C 187.378906 124.234375 190.738281 128.875 177.355469 138.558594 C 163.972656 148.242188 160.617188 143.601562 147.234375 153.28125 C 133.855469 162.964844 137.214844 167.605469 123.832031 177.285156 C 110.453125 186.96875 107.097656 182.328125 93.71875 192.007812 C 80.335938 201.6875 83.695312 206.332031 70.320312 216.007812 C 56.941406 225.691406 53.582031 221.046875 40.199219 230.730469 L 30.121094 216.800781 C 43.5 207.117188 46.859375 211.757812 60.238281 202.078125 C 73.617188 192.398438 70.257812 187.757812 83.636719 178.074219 C 97.015625 168.394531 100.371094 173.039062 113.753906 163.355469 C 127.132812 153.675781 123.773438 149.03125 137.15625 139.351562 C 150.535156 129.671875 153.890625 134.3125 167.277344 124.625 C 180.65625 114.945312 177.296875 110.304688 190.679688 100.621094 Z M 190.679688 100.621094 " clip-rule="nonzero"/></clipPath><clipPath id="037c413510"><path d="M 30.121094 216.800781 L 190.738281 100.578125 L 204.179688 119.148438 L 43.558594 235.371094 Z M 30.121094 216.800781 " clip-rule="nonzero"/></clipPath><clipPath id="5acd4758a5"><path d="M 190.679688 100.621094 L 200.757812 114.554688 C 187.378906 124.234375 190.738281 128.875 177.355469 138.558594 C 163.972656 148.242188 160.617188 143.601562 147.234375 153.28125 C 133.855469 162.964844 137.214844 167.605469 123.832031 177.285156 C 110.453125 186.96875 107.097656 182.328125 93.71875 192.007812 C 80.335938 201.6875 83.695312 206.332031 70.320312 216.007812 C 56.941406 225.691406 53.582031 221.046875 40.199219 230.730469 L 30.121094 216.800781 C 43.5 207.117188 46.859375 211.757812 60.238281 202.078125 C 73.617188 192.398438 70.257812 187.757812 83.636719 178.074219 C 97.015625 168.394531 100.371094 173.039062 113.753906 163.355469 C 127.132812 153.675781 123.773438 149.03125 137.15625 139.351562 C 150.535156 129.671875 153.890625 134.3125 167.277344 124.625 C 180.65625 114.945312 177.296875 110.304688 190.679688 100.621094 Z M 190.679688 100.621094 " clip-rule="nonzero"/></clipPath><clipPath id="71c7624499"><path d="M 72.210938 141.855469 L 214.195312 141.855469 L 214.195312 251.273438 L 72.210938 251.273438 Z M 72.210938 141.855469 " clip-rule="nonzero"/></clipPath><clipPath id="a75cecbf19"><path d="M 72.308594 237.277344 L 204.128906 141.894531 L 217.566406 160.46875 L 85.75 255.851562 Z M 72.308594 237.277344 " clip-rule="nonzero"/></clipPath><clipPath id="713b91a358"><path d="M 204.0625 141.945312 L 214.140625 155.878906 C 203.160156 163.820312 206.519531 168.464844 195.539062 176.40625 C 184.558594 184.355469 181.199219 179.710938 170.222656 187.65625 C 159.242188 195.601562 162.601562 200.242188 151.621094 208.1875 C 140.640625 216.132812 137.28125 211.492188 126.304688 219.433594 C 115.324219 227.378906 118.683594 232.019531 107.707031 239.960938 C 96.726562 247.90625 93.371094 243.265625 82.390625 251.210938 L 72.308594 237.277344 C 83.289062 229.335938 86.648438 233.976562 97.628906 226.03125 C 108.601562 218.089844 105.242188 213.449219 116.222656 205.503906 C 127.203125 197.558594 130.5625 202.203125 141.542969 194.257812 C 152.519531 186.3125 149.164062 181.667969 160.140625 173.726562 C 171.121094 165.78125 174.480469 170.421875 185.460938 162.476562 C 196.441406 154.53125 193.082031 149.890625 204.0625 141.945312 Z M 204.0625 141.945312 " clip-rule="nonzero"/></clipPath><clipPath id="3811c8c55f"><path d="M 72.308594 237.277344 L 204.128906 141.894531 L 217.566406 160.46875 L 85.75 255.851562 Z M 72.308594 237.277344 " clip-rule="nonzero"/></clipPath><clipPath id="42bf4f75bb"><path d="M 204.0625 141.945312 L 214.140625 155.878906 C 203.160156 163.820312 206.519531 168.464844 195.539062 176.40625 C 184.558594 184.355469 181.199219 179.710938 170.222656 187.65625 C 159.242188 195.601562 162.601562 200.242188 151.621094 208.1875 C 140.640625 216.132812 137.28125 211.492188 126.304688 219.433594 C 115.324219 227.378906 118.683594 232.019531 107.707031 239.960938 C 96.726562 247.90625 93.371094 243.265625 82.390625 251.210938 L 72.308594 237.277344 C 83.289062 229.335938 86.648438 233.976562 97.628906 226.03125 C 108.601562 218.089844 105.242188 213.449219 116.222656 205.503906 C 127.203125 197.558594 130.5625 202.203125 141.542969 194.257812 C 152.519531 186.3125 149.164062 181.667969 160.140625 173.726562 C 171.121094 165.78125 174.480469 170.421875 185.460938 162.476562 C 196.441406 154.53125 193.082031 149.890625 204.0625 141.945312 Z M 204.0625 141.945312 " clip-rule="nonzero"/></clipPath><clipPath id="acd9fc4a5a"><rect x="0" width="337" y="0" height="148"/></clipPath></defs><g clip-path="url(#0db648286e)"><g clip-path="url(#8b9fd46614)"><path stroke-linecap="butt" transform="matrix(0.54375, 0, 0, 0.54375, 0.00001635, 41.078668)" fill="none" stroke-linejoin="miter" d="M 198.505733 -0.000998336 C 88.872104 -0.000998336 -0.000030069 88.878319 -0.000030069 198.504765 C -0.000030069 308.138395 88.872104 397.017712 198.505733 397.017712 C 308.139363 397.017712 397.018681 308.138395 397.018681 198.504765 C 397.018681 88.878319 308.139363 -0.000998336 198.505733 -0.000998336 Z M 198.505733 -0.000998336 " stroke="#ffffff" stroke-width="64" stroke-opacity="1" stroke-miterlimit="4"/></g></g><g clip-path="url(#ed08c21d5e)"><g clip-path="url(#b8e75a5d32)"><g clip-path="url(#a41feb102c)"><g clip-path="url(#056f77fb72)"><g clip-path="url(#d3dad2ae68)"><path fill="#ffffff" d="M 8.324219 180.328125 L 162.269531 68.933594 L 175.707031 87.507812 L 21.765625 198.898438 Z M 8.324219 180.328125 " fill-opacity="1" fill-rule="nonzero"/></g></g></g></g></g><g clip-path="url(#3c0782db3c)"><g clip-path="url(#2df9ff7c59)"><g clip-path="url(#1f0d298cfc)"><g clip-path="url(#037c413510)"><g clip-path="url(#5acd4758a5)"><path fill="#ffffff" d="M 30.121094 216.800781 L 190.667969 100.628906 L 204.105469 119.199219 L 43.558594 235.371094 Z M 30.121094 216.800781 " fill-opacity="1" fill-rule="nonzero"/></g></g></g></g></g><g clip-path="url(#71c7624499)"><g clip-path="url(#a75cecbf19)"><g clip-path="url(#713b91a358)"><g clip-path="url(#3811c8c55f)"><g clip-path="url(#42bf4f75bb)"><path fill="#ffffff" d="M 72.308594 237.277344 L 204.054688 141.949219 L 217.496094 160.523438 L 85.75 255.851562 Z M 72.308594 237.277344 " fill-opacity="1" fill-rule="nonzero"/></g></g></g></g></g><g transform="matrix(1, 0, 0, 1, 263, 76)"><g clip-path="url(#acd9fc4a5a)"><g fill="#ffffff" fill-opacity="1"><g transform="translate(0.171211, 110.850585)"><g><path d="M 47.90625 3.6875 C 39.945312 3.6875 32.695312 2.140625 26.15625 -0.953125 C 19.625 -4.046875 14.316406 -8.34375 10.234375 -13.84375 C 6.160156 -19.351562 3.734375 -25.644531 2.953125 -32.71875 L 15.03125 -34.9375 C 15.425781 -29.53125 17.070312 -24.738281 19.96875 -20.5625 C 22.875 -16.382812 26.757812 -13.113281 31.625 -10.75 C 36.488281 -8.394531 41.914062 -7.21875 47.90625 -7.21875 C 56.0625 -7.21875 62.5 -9.132812 67.21875 -12.96875 C 71.9375 -16.800781 74.296875 -21.566406 74.296875 -27.265625 C 74.296875 -31.890625 72.570312 -35.625 69.125 -38.46875 C 65.6875 -41.320312 60.1875 -43.632812 52.625 -45.40625 L 35.8125 -49.234375 C 26.582031 -51.398438 19.753906 -54.644531 15.328125 -58.96875 C 10.910156 -63.289062 8.703125 -68.890625 8.703125 -75.765625 C 8.703125 -82.054688 10.175781 -87.582031 13.125 -92.34375 C 16.070312 -97.113281 20.171875 -100.847656 25.421875 -103.546875 C 30.679688 -106.253906 36.847656 -107.609375 43.921875 -107.609375 C 50.316406 -107.609375 56.066406 -106.378906 61.171875 -103.921875 C 66.285156 -101.460938 70.507812 -98.019531 73.84375 -93.59375 C 77.1875 -89.175781 79.351562 -84.066406 80.34375 -78.265625 L 68.6875 -75.328125 C 68 -81.710938 65.394531 -86.867188 60.875 -90.796875 C 56.351562 -94.734375 50.753906 -96.703125 44.078125 -96.703125 C 37.003906 -96.703125 31.378906 -94.90625 27.203125 -91.3125 C 23.023438 -87.726562 20.9375 -83.234375 20.9375 -77.828125 C 20.9375 -73.410156 22.410156 -69.875 25.359375 -67.21875 C 28.304688 -64.5625 33.070312 -62.5 39.65625 -61.03125 L 56.453125 -57.1875 C 76.503906 -52.769531 86.53125 -43.4375 86.53125 -29.1875 C 86.53125 -22.894531 84.929688 -17.265625 81.734375 -12.296875 C 78.546875 -7.335938 74.078125 -3.429688 68.328125 -0.578125 C 62.578125 2.265625 55.769531 3.6875 47.90625 3.6875 Z M 47.90625 3.6875 "/></g></g></g><g fill="#ffffff" fill-opacity="1"><g transform="translate(89.646398, 110.850585)"><g><path d="M 35.96875 33.90625 C 26.726562 33.90625 18.816406 32.132812 12.234375 28.59375 C 5.648438 25.0625 0.929688 20.347656 -1.921875 14.453125 L 7.671875 7.953125 C 10.023438 12.671875 13.632812 16.476562 18.5 19.375 C 23.363281 22.28125 29.085938 23.734375 35.671875 23.734375 C 44.117188 23.734375 50.75 21.492188 55.5625 17.015625 C 60.382812 12.546875 62.796875 6.382812 62.796875 -1.46875 L 62.796875 -7.953125 L 62.640625 -7.953125 C 60.085938 -3.628906 56.5 -0.242188 51.875 2.203125 C 47.257812 4.660156 42.347656 5.890625 37.140625 5.890625 C 30.953125 5.890625 25.570312 4.460938 21 1.609375 C 16.4375 -1.234375 12.875 -5.132812 10.3125 -10.09375 C 7.757812 -15.0625 6.484375 -20.6875 6.484375 -26.96875 L 6.484375 -74.4375 L 17.6875 -74.4375 L 17.6875 -26.96875 C 17.6875 -20.382812 19.53125 -14.957031 23.21875 -10.6875 C 26.90625 -6.414062 31.988281 -4.28125 38.46875 -4.28125 C 42.789062 -4.28125 46.796875 -5.332031 50.484375 -7.4375 C 54.171875 -9.550781 57.117188 -12.425781 59.328125 -16.0625 C 61.535156 -19.695312 62.640625 -23.875 62.640625 -28.59375 L 62.640625 -74.4375 L 73.84375 -74.4375 L 74 -1.46875 C 74 9.632812 70.582031 18.304688 63.75 24.546875 C 56.925781 30.785156 47.664062 33.90625 35.96875 33.90625 Z M 35.96875 33.90625 "/></g></g></g><g fill="#ffffff" fill-opacity="1"><g transform="translate(171.014289, 110.850585)"><g><path d="M 47.3125 -77.390625 C 55.863281 -77.390625 62.59375 -74.804688 67.5 -69.640625 C 72.414062 -64.484375 74.875 -57.285156 74.875 -48.046875 L 74.875 0 L 63.53125 0 L 63.53125 -46.875 C 63.53125 -53.257812 61.785156 -58.316406 58.296875 -62.046875 C 54.804688 -65.785156 50.113281 -67.65625 44.21875 -67.65625 C 39.207031 -67.65625 34.785156 -66.570312 30.953125 -64.40625 C 27.117188 -62.25 24.097656 -59.253906 21.890625 -55.421875 C 19.679688 -51.585938 18.578125 -47.117188 18.578125 -42.015625 L 18.578125 0 L 7.375 0 L 7.375 -74.4375 L 17.546875 -74.4375 L 18.578125 -63.390625 L 18.71875 -63.390625 C 21.863281 -67.910156 25.796875 -71.375 30.515625 -73.78125 C 35.234375 -76.1875 40.832031 -77.390625 47.3125 -77.390625 Z M 47.3125 -77.390625 "/></g></g></g><g fill="#ffffff" fill-opacity="1"><g transform="translate(252.529551, 110.850585)"><g><path d="M 43.78125 2.953125 C 36.113281 2.953125 29.304688 1.234375 23.359375 -2.203125 C 17.421875 -5.648438 12.78125 -10.394531 9.4375 -16.4375 C 6.09375 -22.476562 4.421875 -29.378906 4.421875 -37.140625 C 4.421875 -45.003906 5.992188 -51.957031 9.140625 -58 C 12.285156 -64.039062 16.65625 -68.78125 22.25 -72.21875 C 27.851562 -75.664062 34.289062 -77.390625 41.5625 -77.390625 C 47.164062 -77.390625 52.328125 -76.304688 57.046875 -74.140625 C 61.765625 -71.984375 65.769531 -68.988281 69.0625 -65.15625 C 72.351562 -61.320312 74.585938 -56.898438 75.765625 -51.890625 L 64.859375 -49.375 C 63.378906 -54.78125 60.503906 -59.078125 56.234375 -62.265625 C 51.960938 -65.460938 47.070312 -67.0625 41.5625 -67.0625 C 36.65625 -67.0625 32.234375 -65.804688 28.296875 -63.296875 C 24.367188 -60.796875 21.273438 -57.3125 19.015625 -52.84375 C 16.753906 -48.375 15.625 -43.140625 15.625 -37.140625 C 15.625 -31.242188 16.851562 -26.035156 19.3125 -21.515625 C 21.769531 -16.992188 25.109375 -13.476562 29.328125 -10.96875 C 33.554688 -8.46875 38.375 -7.21875 43.78125 -7.21875 C 48.300781 -7.21875 52.453125 -8.125 56.234375 -9.9375 C 60.015625 -11.757812 63.179688 -14.289062 65.734375 -17.53125 C 68.296875 -20.78125 69.921875 -24.519531 70.609375 -28.75 L 81.515625 -26.53125 C 80.628906 -20.832031 78.390625 -15.769531 74.796875 -11.34375 C 71.210938 -6.925781 66.742188 -3.4375 61.390625 -0.875 C 56.035156 1.675781 50.164062 2.953125 43.78125 2.953125 Z M 43.78125 2.953125 "/></g></g></g></g></g></svg>