<svg xmlns="http://www.w3.org/2000/svg" xmlns:xlink="http://www.w3.org/1999/xlink" width="400" zoomAndPan="magnify" viewBox="0 0 300 299.999988" height="400" preserveAspectRatio="xMidYMid meet" version="1.0"><defs><clipPath id="4c596166d2"><path d="M 0 0 L 297.75 0 L 297.75 297.75 L 0 297.75 Z M 0 0 " clip-rule="nonzero"/></clipPath><clipPath id="86a55859aa"><path d="M 148.878906 0 C 66.65625 0 0 66.65625 0 148.878906 C 0 231.105469 66.65625 297.761719 148.878906 297.761719 C 231.105469 297.761719 297.761719 231.105469 297.761719 148.878906 C 297.761719 66.65625 231.105469 0 148.878906 0 Z M 148.878906 0 " clip-rule="nonzero"/></clipPath><clipPath id="9d998998cc"><path d="M 11 38 L 238 38 L 238 212 L 11 212 Z M 11 38 " clip-rule="nonzero"/></clipPath><clipPath id="06b3a2fd78"><path d="M 11.480469 192.066406 L 223.921875 38.347656 L 242.457031 63.964844 L 30.019531 217.683594 Z M 11.480469 192.066406 " clip-rule="nonzero"/></clipPath><clipPath id="93973502a1"><path d="M 223.839844 38.40625 L 237.746094 57.621094 C 220.046875 70.425781 224.679688 76.828125 206.984375 89.632812 C 189.28125 102.441406 184.648438 96.039062 166.953125 108.84375 C 149.257812 121.648438 153.890625 128.050781 136.191406 140.855469 C 118.496094 153.660156 113.863281 147.261719 96.167969 160.066406 C 78.46875 172.871094 83.101562 179.273438 65.410156 192.074219 C 47.714844 204.878906 43.082031 198.476562 25.386719 211.28125 L 11.480469 192.066406 C 29.179688 179.261719 33.8125 185.664062 51.507812 172.859375 C 69.199219 160.058594 64.566406 153.65625 82.261719 140.851562 C 99.960938 128.046875 104.59375 134.445312 122.289062 121.640625 C 139.984375 108.835938 135.351562 102.433594 153.050781 89.628906 C 170.746094 76.824219 175.378906 83.226562 193.082031 70.417969 C 210.777344 57.613281 206.144531 51.210938 223.839844 38.40625 Z M 223.839844 38.40625 " clip-rule="nonzero"/></clipPath><clipPath id="5ec8cc3b47"><path d="M 0.28125 0.398438 L 226.839844 0.398438 L 226.839844 173.441406 L 0.28125 173.441406 Z M 0.28125 0.398438 " clip-rule="nonzero"/></clipPath><clipPath id="621692f6b9"><path d="M 0.480469 154.066406 L 212.921875 0.347656 L 231.457031 25.964844 L 19.019531 179.683594 Z M 0.480469 154.066406 " clip-rule="nonzero"/></clipPath><clipPath id="dcdc14ee78"><path d="M 212.839844 0.40625 L 226.746094 19.621094 C 209.046875 32.425781 213.679688 38.828125 195.984375 51.632812 C 178.28125 64.441406 173.648438 58.039062 155.953125 70.84375 C 138.257812 83.648438 142.890625 90.050781 125.191406 102.855469 C 107.496094 115.660156 102.863281 109.261719 85.167969 122.066406 C 67.46875 134.871094 72.101562 141.273438 54.410156 154.074219 C 36.714844 166.878906 32.082031 160.476562 14.386719 173.28125 L 0.480469 154.066406 C 18.179688 141.261719 22.8125 147.664062 40.507812 134.859375 C 58.199219 122.058594 53.566406 115.65625 71.261719 102.851562 C 88.960938 90.046875 93.59375 96.445312 111.289062 83.640625 C 128.984375 70.835938 124.351562 64.433594 142.050781 51.628906 C 159.746094 38.824219 164.378906 45.226562 182.082031 32.417969 C 199.777344 19.613281 195.144531 13.210938 212.839844 0.40625 Z M 212.839844 0.40625 " clip-rule="nonzero"/></clipPath><clipPath id="19cf0eff4c"><rect x="0" width="227" y="0" height="174"/></clipPath><clipPath id="b9b3aa378a"><path d="M 41 82 L 277 82 L 277 262 L 41 262 Z M 41 82 " clip-rule="nonzero"/></clipPath><clipPath id="ca2bd2eaee"><path d="M 41.546875 242.375 L 263.089844 82.066406 L 281.625 107.683594 L 60.082031 267.988281 Z M 41.546875 242.375 " clip-rule="nonzero"/></clipPath><clipPath id="bdbd141636"><path d="M 263.003906 82.128906 L 276.90625 101.34375 C 258.453125 114.699219 263.085938 121.097656 244.628906 134.453125 C 226.167969 147.8125 221.539062 141.410156 203.082031 154.761719 C 184.628906 168.117188 189.261719 174.519531 170.804688 187.871094 C 152.351562 201.226562 147.71875 194.824219 129.265625 208.175781 C 110.808594 221.53125 115.441406 227.933594 96.992188 241.28125 C 78.539062 254.636719 73.90625 248.234375 55.449219 261.589844 L 41.546875 242.375 C 60 229.019531 64.632812 235.421875 83.089844 222.066406 C 101.539062 208.71875 96.90625 202.316406 115.359375 188.960938 C 133.816406 175.609375 138.445312 182.011719 156.902344 168.65625 C 175.355469 155.304688 170.722656 148.902344 189.179688 135.546875 C 207.632812 122.195312 212.265625 128.597656 230.726562 115.238281 C 249.179688 101.882812 244.546875 95.484375 263.003906 82.128906 Z M 263.003906 82.128906 " clip-rule="nonzero"/></clipPath><clipPath id="9165fd307b"><path d="M 0.519531 0.078125 L 235.960938 0.078125 L 235.960938 179.601562 L 0.519531 179.601562 Z M 0.519531 0.078125 " clip-rule="nonzero"/></clipPath><clipPath id="be25c85baa"><path d="M 0.546875 160.375 L 222.089844 0.0664062 L 240.625 25.683594 L 19.082031 185.988281 Z M 0.546875 160.375 " clip-rule="nonzero"/></clipPath><clipPath id="c1c994ad4a"><path d="M 222.003906 0.128906 L 235.90625 19.34375 C 217.453125 32.699219 222.085938 39.097656 203.628906 52.453125 C 185.167969 65.8125 180.539062 59.410156 162.082031 72.761719 C 143.628906 86.117188 148.261719 92.519531 129.804688 105.871094 C 111.351562 119.226562 106.71875 112.824219 88.265625 126.175781 C 69.808594 139.53125 74.441406 145.933594 55.992188 159.28125 C 37.539062 172.636719 32.90625 166.234375 14.449219 179.589844 L 0.546875 160.375 C 19 147.019531 23.632812 153.421875 42.089844 140.066406 C 60.539062 126.71875 55.90625 120.316406 74.359375 106.960938 C 92.816406 93.609375 97.445312 100.011719 115.902344 86.65625 C 134.355469 73.304688 129.722656 66.902344 148.179688 53.546875 C 166.632812 40.195312 171.265625 46.597656 189.726562 33.238281 C 208.179688 19.882812 203.546875 13.484375 222.003906 0.128906 Z M 222.003906 0.128906 " clip-rule="nonzero"/></clipPath><clipPath id="ead84c500d"><rect x="0" width="236" y="0" height="180"/></clipPath><clipPath id="788825de25"><path d="M 99 139 L 296 139 L 296 290 L 99 290 Z M 99 139 " clip-rule="nonzero"/></clipPath><clipPath id="a9b5a6bd38"><path d="M 99.738281 270.621094 L 281.558594 139.058594 L 300.09375 164.675781 L 118.277344 296.238281 Z M 99.738281 270.621094 " clip-rule="nonzero"/></clipPath><clipPath id="886c21a96e"><path d="M 281.464844 139.128906 L 295.367188 158.34375 C 280.222656 169.300781 284.855469 175.703125 269.710938 186.660156 C 254.5625 197.621094 249.929688 191.21875 234.789062 202.175781 C 219.644531 213.136719 224.277344 219.535156 209.132812 230.496094 C 193.988281 241.453125 189.355469 235.050781 174.214844 246.007812 C 159.070312 256.964844 163.703125 263.367188 148.5625 274.320312 C 133.417969 285.28125 128.785156 278.878906 113.644531 289.835938 L 99.738281 270.621094 C 114.882812 259.664062 119.515625 266.066406 134.660156 255.105469 C 149.796875 244.152344 145.164062 237.75 160.308594 226.792969 C 175.453125 215.835938 180.085938 222.238281 195.230469 211.28125 C 210.371094 200.320312 205.742188 193.917969 220.882812 182.960938 C 236.027344 172.003906 240.660156 178.40625 255.808594 167.445312 C 270.953125 156.488281 266.320312 150.085938 281.464844 139.128906 Z M 281.464844 139.128906 " clip-rule="nonzero"/></clipPath><clipPath id="7c6d673e3e"><path d="M 0.601562 0 L 196.441406 0 L 196.441406 150.921875 L 0.601562 150.921875 Z M 0.601562 0 " clip-rule="nonzero"/></clipPath><clipPath id="89482fcd95"><path d="M 0.738281 131.621094 L 182.558594 0.0585938 L 201.09375 25.675781 L 19.277344 157.238281 Z M 0.738281 131.621094 " clip-rule="nonzero"/></clipPath><clipPath id="02a4c3d925"><path d="M 182.464844 0.128906 L 196.367188 19.34375 C 181.222656 30.300781 185.855469 36.703125 170.710938 47.660156 C 155.5625 58.621094 150.929688 52.21875 135.789062 63.175781 C 120.644531 74.136719 125.277344 80.535156 110.132812 91.496094 C 94.988281 102.453125 90.355469 96.050781 75.214844 107.007812 C 60.070312 117.964844 64.703125 124.367188 49.5625 135.320312 C 34.417969 146.28125 29.785156 139.878906 14.644531 150.835938 L 0.738281 131.621094 C 15.882812 120.664062 20.515625 127.066406 35.660156 116.105469 C 50.796875 105.152344 46.164062 98.75 61.308594 87.792969 C 76.453125 76.835938 81.085938 83.238281 96.230469 72.28125 C 111.371094 61.320312 106.742188 54.917969 121.882812 43.960938 C 137.027344 33.003906 141.660156 39.40625 156.808594 28.445312 C 171.953125 17.488281 167.320312 11.085938 182.464844 0.128906 Z M 182.464844 0.128906 " clip-rule="nonzero"/></clipPath><clipPath id="9e3109c1f2"><rect x="0" width="197" y="0" height="151"/></clipPath></defs><g clip-path="url(#4c596166d2)"><g clip-path="url(#86a55859aa)"><path stroke-linecap="butt" transform="matrix(0.75, 0, 0, 0.75, 0.000006, 0)" fill="none" stroke-linejoin="miter" d="M 198.505217 0 C 88.874999 0 -0.000008 88.875007 -0.000008 198.505225 C -0.000008 308.14065 88.874999 397.015657 198.505217 397.015657 C 308.140642 397.015657 397.015649 308.14065 397.015649 198.505225 C 397.015649 88.875007 308.140642 0 198.505217 0 Z M 198.505217 0 " stroke="#000000" stroke-width="64" stroke-opacity="1" stroke-miterlimit="4"/></g></g><g clip-path="url(#9d998998cc)"><g clip-path="url(#06b3a2fd78)"><g clip-path="url(#93973502a1)"><g transform="matrix(1, 0, 0, 1, 11, 38)"><g clip-path="url(#19cf0eff4c)"><g clip-path="url(#5ec8cc3b47)"><g clip-path="url(#621692f6b9)"><g clip-path="url(#dcdc14ee78)"><path fill="#000000" d="M 0.480469 154.066406 L 212.820312 0.421875 L 231.355469 26.039062 L 19.019531 179.683594 Z M 0.480469 154.066406 " fill-opacity="1" fill-rule="nonzero"/></g></g></g></g></g></g></g></g><g clip-path="url(#b9b3aa378a)"><g clip-path="url(#ca2bd2eaee)"><g clip-path="url(#bdbd141636)"><g transform="matrix(1, 0, 0, 1, 41, 82)"><g clip-path="url(#ead84c500d)"><g clip-path="url(#9165fd307b)"><g clip-path="url(#be25c85baa)"><g clip-path="url(#c1c994ad4a)"><path fill="#000000" d="M 0.546875 160.375 L 221.992188 0.136719 L 240.527344 25.753906 L 19.082031 185.988281 Z M 0.546875 160.375 " fill-opacity="1" fill-rule="nonzero"/></g></g></g></g></g></g></g></g><g clip-path="url(#788825de25)"><g clip-path="url(#a9b5a6bd38)"><g clip-path="url(#886c21a96e)"><g transform="matrix(1, 0, 0, 1, 99, 139)"><g clip-path="url(#9e3109c1f2)"><g clip-path="url(#7c6d673e3e)"><g clip-path="url(#89482fcd95)"><g clip-path="url(#02a4c3d925)"><path fill="#000000" d="M 0.738281 131.621094 L 182.457031 0.132812 L 200.992188 25.75 L 19.277344 157.238281 Z M 0.738281 131.621094 " fill-opacity="1" fill-rule="nonzero"/></g></g></g></g></g></g></g></g></svg>